<svg xmlns="http://www.w3.org/2000/svg" viewBox="0 0 512 512" role="img" aria-labelledby="title desc">
  <title id="title">The Financial Lab</title><desc id="desc">A laboratory flask forming an upward financial chart.</desc>
  <defs><linearGradient id="g" x1="0" y1="0" x2="1" y2="1"><stop stop-color="#39e6bd"/><stop offset="1" stop-color="#11a884"/></linearGradient></defs>
  <rect width="512" height="512" rx="112" fill="#07151c"/>
  <path d="M199 94h114v34l-20 18v67l83 139c25 42-6 96-55 96H191c-49 0-80-54-55-96l83-139v-67l-20-18V94Z" fill="none" stroke="#eafbf6" stroke-width="28" stroke-linejoin="round"/>
  <path d="M166 349c65-13 111-69 181-54l29 57c25 42-6 96-55 96H191c-49 0-80-54-55-96l3-5c8 3 17 4 27 2Z" fill="url(#g)"/>
  <path d="m190 333 49-47 43 27 62-72" fill="none" stroke="#07151c" stroke-width="24" stroke-linecap="round" stroke-linejoin="round"/>
  <path d="m316 241 28 0 0 28" fill="none" stroke="#07151c" stroke-width="24" stroke-linecap="round"/>
</svg>
